# xmcd
#
# Track frame offsets:
#	150
#	12406
#	26759
#	41217
#	52808
#	70214
#	90622
#	105444
#	119809
#	133443
#	147939
#	162573
#
# Disc length: 2419 seconds
#
# Revision: 2
# Processed by: cddbd v1.5.2PL0 Copyright (c) Steve Scherf et al.
# Submitted via: audiograbber 1.83.01
#
DISCID=b109710c
DTITLE=Various Artist - Country Saloon
DYEAR=2001
DGENRE=Country
TTITLE0=Ottar Big Hand Johansen - Good Times
TTITLE1=Lillian Askeland - Detroit City
TTITLE2=G. Thomas - Texas (When I Die)
TTITLE3=Country Snakes and Anne Engh - Love Has Mercy
TTITLE4=Ottar Big Hand Johansen - Long Black Veil
TTITLE5=Lillian Askeland - Deportee
TTITLE6=G. Thomas - War Is Hell (On The Homefront Too)
TTITLE7=Country Snakes - Blue Kentucky Girl
TTITLE8=Ottar Big hand Johansen - Three Weeks On An Endless Highway
TTITLE9=Lillian and Big Hand - The Darkest Hour
TTITLE10=Country Snakes and Anne Engh - One Way Ticket To Tennessee
TTITLE11=Kjell Birkeland - Ghost Rider In The Sky
EXTD=P and C 2001 Bellevue Entertainment 11821-2\nLisensiert fra TVA A/S
EXTT0=
EXTT1=
EXTT2=
EXTT3=
EXTT4=
EXTT5=
EXTT6=
EXTT7=
EXTT8=
EXTT9=
EXTT10=
EXTT11=
PLAYORDER=
